<svg width="955" height="577" viewBox="0 0 955 577" fill="none" xmlns="http://www.w3.org/2000/svg">
<rect width="955" height="577" rx="45" fill="#1C1C1C"/>
<rect x="28" y="35" width="900" height="418" fill="white"/>
<path d="M0 500H955V532C955 556.853 934.853 577 910 577H45C20.1472 577 0 556.853 0 532V500Z" fill="#C9C9C9"/>
<rect x="84" y="66" width="788" height="356" rx="30" fill="white"/>
<path d="M84 86C84 74.9543 92.9543 66 104 66H852C863.046 66 872 74.9543 872 86V102H84V86Z" fill="#DBDBDB"/>
<path d="M443.158 84.0332L442.115 85.1172V88H440.99V79.4688H442.115V83.6875L445.906 79.4688H447.266L443.908 83.2363L447.529 88H446.182L443.158 84.0332ZM449.721 88H448.596V79.4688H449.721V88ZM453.236 79.4688L456.025 86.4297L458.814 79.4688H460.273V88H459.148V84.6777L459.254 81.0918L456.453 88H455.592L452.797 81.1094L452.908 84.6777V88H451.783V79.4688H453.236ZM471.535 86.8809C471.246 87.2949 470.842 87.6055 470.322 87.8125C469.807 88.0156 469.205 88.1172 468.518 88.1172C467.822 88.1172 467.205 87.9551 466.666 87.6309C466.127 87.3027 465.709 86.8379 465.412 86.2363C465.119 85.6348 464.969 84.9375 464.961 84.1445V83.4004C464.961 82.1152 465.26 81.1191 465.857 80.4121C466.459 79.7051 467.303 79.3516 468.389 79.3516C469.279 79.3516 469.996 79.5801 470.539 80.0371C471.082 80.4902 471.414 81.1348 471.535 81.9707H470.41C470.199 80.8418 469.527 80.2773 468.395 80.2773C467.641 80.2773 467.068 80.543 466.678 81.0742C466.291 81.6016 466.096 82.3672 466.092 83.3711V84.0684C466.092 85.0254 466.311 85.7871 466.748 86.3535C467.186 86.916 467.777 87.1973 468.523 87.1973C468.945 87.1973 469.314 87.1504 469.631 87.0566C469.947 86.9629 470.209 86.8047 470.416 86.582V84.666H468.441V83.752H471.535V86.8809ZM478.238 84.0566H474.541V87.0801H478.836V88H473.416V79.4688H478.777V80.3945H474.541V83.1367H478.238V84.0566ZM486.242 79.4688V85.2695C486.238 86.0742 485.984 86.7324 485.48 87.2441C484.98 87.7559 484.301 88.043 483.441 88.1055L483.143 88.1172C482.209 88.1172 481.465 87.8652 480.91 87.3613C480.355 86.8574 480.074 86.1641 480.066 85.2812V79.4688H481.18V85.2461C481.18 85.8633 481.35 86.3438 481.689 86.6875C482.029 87.0273 482.514 87.1973 483.143 87.1973C483.779 87.1973 484.266 87.0273 484.602 86.6875C484.941 86.3477 485.111 85.8691 485.111 85.252V79.4688H486.242ZM489.471 79.4688L492.26 86.4297L495.049 79.4688H496.508V88H495.383V84.6777L495.488 81.0918L492.688 88H491.826L489.031 81.1094L489.143 84.6777V88H488.018V79.4688H489.471ZM502.924 79.4688L505.713 86.4297L508.502 79.4688H509.961V88H508.836V84.6777L508.941 81.0918L506.141 88H505.279L502.484 81.1094L502.596 84.6777V88H501.471V79.4688H502.924ZM513.154 88H512.029V79.4688H513.154V88Z" fill="black"/>
<path d="M872 402C872 413.046 863.046 422 852 422L104 422C92.9543 422 84 413.046 84 402V386L872 386V402Z" fill="#DBDBDB"/>
<circle cx="116" cy="84" r="11" fill="#EB2727"/>
<circle cx="147" cy="84" r="11" fill="#FCDC6B"/>
<circle cx="178" cy="84" r="11" fill="#29AF26"/>
</svg>
