<?xml version="1.0" standalone="no"?>
<!DOCTYPE svg PUBLIC "-//W3C//DTD SVG 20010904//EN"
 "http://www.w3.org/TR/2001/REC-SVG-20010904/DTD/svg10.dtd">
<svg version="1.0" xmlns="http://www.w3.org/2000/svg"
 width="1280.000000pt" height="640.000000pt" viewBox="0 0 1280.000000 640.000000"
 preserveAspectRatio="xMidYMid meet">
<metadata>
Created by potrace 1.15, written by Peter Selinger 2001-2017
</metadata>
<g transform="translate(0.000000,640.000000) scale(0.100000,-0.100000)"
fill="#000000" stroke="none">
<path d="M12724 4706 c-21 -19 -61 -70 -89 -114 l-50 -80 -165 -80 c-91 -44
-236 -110 -322 -146 l-157 -67 -159 2 -159 1 -121 -60 c-127 -63 -250 -135
-342 -202 -45 -32 -91 -50 -254 -99 l-199 -60 -76 31 c-64 26 -90 31 -166 32
-49 1 -111 -3 -137 -7 -40 -7 -48 -6 -48 7 0 13 -14 16 -80 16 l-80 0 0 -43
c0 -41 -2 -44 -37 -56 -90 -32 -275 -127 -365 -187 l-98 -66 -183 -39 c-100
-21 -264 -54 -363 -74 l-181 -34 -109 44 c-60 25 -134 50 -164 56 -30 6 -63
15 -72 20 -10 5 -52 9 -93 9 -60 0 -75 -3 -75 -15 0 -8 -24 -27 -52 -41 -29
-15 -120 -71 -203 -124 l-150 -98 -230 -31 c-377 -50 -351 -50 -493 -1 -76 27
-122 48 -122 56 0 11 -22 14 -100 14 -91 0 -106 -3 -158 -29 -31 -16 -99 -59
-150 -95 l-92 -66 -193 -15 c-105 -8 -250 -19 -322 -24 l-130 -9 -95 41 c-127
53 -246 94 -303 102 -26 4 -51 14 -56 23 -7 13 -17 12 -77 -12 -38 -16 -71
-31 -74 -35 -3 -4 -30 -17 -60 -30 -30 -13 -98 -46 -150 -75 l-95 -51 -405 0
-405 0 -130 66 c-71 37 -148 72 -170 80 -22 7 -44 17 -49 21 -13 10 -166 10
-166 0 0 -4 -34 -14 -75 -21 -42 -7 -131 -29 -198 -48 -205 -60 -193 -59 -455
-39 -130 10 -295 24 -365 31 l-129 14 -126 123 c-86 83 -145 132 -183 151 -58
29 -179 52 -231 45 -15 -3 -29 0 -31 6 -2 7 -13 6 -33 -2 -16 -6 -67 -18 -113
-27 -82 -15 -414 -96 -477 -116 -25 -8 -84 1 -305 46 -151 30 -328 67 -394 83
l-119 27 -39 58 c-51 77 -108 131 -167 159 -31 14 -49 30 -50 41 0 15 -11 17
-80 17 l-80 0 0 -44 c0 -38 -4 -48 -29 -65 -45 -32 -74 -102 -69 -161 17 -179
244 -225 323 -66 14 27 25 58 25 67 0 16 5 16 71 -1 39 -10 72 -20 74 -22 2
-2 23 -31 48 -64 42 -57 106 -111 150 -127 13 -5 17 -18 17 -57 0 -45 -4 -54
-39 -89 -72 -72 -80 -178 -19 -247 41 -46 77 -64 133 -64 74 0 129 39 160 112
28 68 13 140 -41 193 -27 27 -34 42 -34 73 l0 39 97 6 c54 4 152 18 218 32
l119 25 216 -35 c118 -19 230 -37 247 -40 18 -3 33 -11 33 -18 0 -68 58 -147
125 -173 98 -37 178 10 231 134 1 2 82 -6 180 -18 145 -16 184 -24 204 -40 51
-41 114 -80 159 -97 25 -9 47 -18 49 -19 2 -1 -2 -20 -7 -42 -8 -28 -18 -42
-34 -46 -33 -8 -94 -73 -108 -114 -26 -78 15 -183 84 -215 43 -21 119 -22 155
-3 58 30 102 103 102 169 0 18 -12 57 -26 85 -24 48 -25 57 -15 97 14 55 14
53 -6 57 -10 2 25 10 77 17 52 7 145 24 207 39 101 25 122 27 225 20 62 -3
150 -7 195 -9 l83 -2 -8 -26 c-4 -14 -7 -49 -6 -77 2 -181 244 -235 323 -72
23 48 27 92 11 132 l-10 26 135 0 135 0 118 -59 c64 -32 145 -69 180 -81 l62
-23 0 -46 c0 -41 -4 -50 -31 -70 -63 -47 -86 -148 -50 -227 47 -103 173 -131
261 -58 43 37 63 80 63 139 0 56 -18 98 -57 134 -22 20 -26 33 -26 78 0 51 -1
53 -27 54 -20 0 -9 7 40 24 38 14 121 49 185 79 l117 55 143 3 142 3 0 -42 c0
-53 14 -91 48 -126 39 -41 74 -57 128 -57 69 0 119 32 151 98 23 47 25 59 16
97 l-10 43 123 7 c142 8 132 10 284 -46 63 -23 121 -43 128 -45 7 -2 12 -22
12 -54 0 -46 -4 -54 -36 -83 -62 -54 -80 -129 -49 -204 21 -50 42 -72 90 -94
52 -24 89 -24 142 2 110 53 133 194 47 288 -29 33 -34 45 -34 90 0 42 -3 51
-17 52 -10 0 6 11 35 24 29 13 85 46 125 74 70 49 75 50 176 60 156 16 152 17
139 -20 -6 -17 -8 -50 -5 -75 19 -170 245 -212 324 -59 21 39 21 122 0 162
-21 39 -18 40 100 49 81 5 96 3 182 -25 51 -17 110 -34 131 -37 35 -6 39 -10
55 -58 16 -48 17 -54 2 -77 -38 -58 -29 -151 19 -209 107 -126 304 -55 304
110 0 77 -46 143 -121 174 -25 10 -41 26 -54 55 -10 23 -16 42 -14 44 2 2 43
27 91 56 83 49 95 54 210 72 68 10 135 21 151 24 25 4 27 2 27 -32 0 -95 80
-173 177 -173 109 0 193 114 163 220 -7 23 -6 36 1 41 6 3 68 16 138 27 l127
22 98 -36 c54 -19 125 -37 158 -41 59 -6 61 -7 79 -48 18 -41 18 -43 -1 -80
-35 -69 -24 -154 28 -208 39 -41 74 -57 128 -57 157 0 229 188 114 302 -21 21
-51 41 -67 44 -23 4 -35 16 -51 49 l-21 43 62 38 c34 20 97 61 141 91 76 52
85 55 255 94 97 22 183 42 192 45 11 3 19 -7 28 -35 24 -81 87 -131 166 -131
107 0 186 96 171 209 l-6 47 173 48 c160 44 176 46 221 36 57 -12 175 -4 224
16 18 7 56 35 85 62 65 62 57 57 272 130 99 33 187 63 196 67 14 5 16 0 12
-39 -8 -66 4 -112 40 -153 74 -84 191 -86 261 -3 62 74 55 172 -20 246 l-41
42 76 29 c74 29 80 29 220 25 98 -3 139 -7 127 -14 -14 -8 -13 -14 17 -51 31
-39 33 -45 24 -81 -12 -50 4 -105 46 -153 74 -84 191 -86 261 -3 31 37 49 99
40 137 -20 87 -94 153 -170 153 -28 0 -43 6 -52 20 -8 13 -8 20 -2 20 23 0
112 97 173 188 59 89 69 99 126 126 33 16 61 33 61 38 0 12 -6 10 -61 -18 -28
-14 -48 -19 -43 -12 50 86 128 178 151 178 7 0 13 5 13 10 0 19 -27 10 -66
-24z m-190 -278 c-47 -75 -112 -152 -150 -178 l-37 -25 -15 23 -14 22 -38 -30
c-38 -30 -39 -30 -166 -30 -72 0 -124 4 -118 9 5 4 59 29 119 54 142 59 417
186 429 198 21 20 16 -2 -10 -43z m-655 -232 c-2 -2 -37 -15 -77 -30 -72 -26
-72 -26 -92 -6 -35 35 -24 40 77 40 53 0 94 -2 92 -4z m-332 -81 c9 -19 15
-36 12 -38 -10 -10 -362 -127 -367 -123 -10 10 303 195 331 196 4 0 15 -16 24
-35z m-513 -266 c-59 -51 -75 -57 -173 -65 -140 -12 -127 7 42 58 83 25 158
46 165 47 7 0 -8 -17 -34 -40z m-421 -29 c31 -13 56 -25 54 -27 -2 -2 -75 -23
-162 -47 l-158 -44 -34 35 c-21 23 -33 46 -33 63 0 25 5 29 48 38 77 17 218 8
285 -18z m-537 -85 c-19 -19 -40 -53 -46 -74 -6 -23 -18 -42 -28 -45 -9 -3
-78 -19 -152 -36 -74 -17 -144 -33 -155 -36 l-20 -5 20 16 c51 41 176 112 283
161 64 29 121 53 125 53 4 1 -8 -15 -27 -34z m-9746 -118 c48 -28 150 -141
150 -166 0 -4 -29 0 -65 9 -62 14 -65 17 -80 57 -9 24 -30 55 -46 70 -27 26
-39 63 -21 63 4 0 32 -15 62 -33z m9240 -122 c0 -9 -162 -111 -240 -151 -69
-35 -82 -39 -155 -39 -63 0 -98 7 -165 30 -47 16 -78 31 -70 33 8 2 152 32
320 67 168 34 306 63 308 64 1 0 2 -1 2 -4z m-909 -46 c37 -10 95 -32 130 -47
l63 -28 -127 -23 -128 -22 -29 28 c-25 23 -30 36 -30 76 0 54 -7 53 121 16z
m-314 -80 c-19 -15 -40 -42 -47 -58 -8 -19 -21 -32 -38 -35 -49 -10 -226 -35
-229 -32 -3 3 99 70 237 154 l105 63 3 -32 c3 -26 -3 -37 -31 -60z m-7517 -23
c140 -30 290 -60 333 -67 42 -7 77 -16 77 -19 0 -9 -171 -40 -250 -47 -103 -8
-249 11 -307 40 -48 25 -119 93 -143 137 -11 21 -10 22 11 17 13 -3 139 -31
279 -61z m1375 10 c55 -27 94 -58 177 -142 59 -60 106 -109 105 -110 -1 -1
-74 7 -162 17 -88 10 -163 18 -167 19 -5 0 -8 14 -8 32 0 54 -43 113 -104 143
-46 22 -76 55 -76 82 0 3 37 3 83 0 65 -5 96 -14 152 -41z m-379 -32 c16 -43
16 -47 1 -74 -9 -15 -17 -35 -17 -44 0 -9 -5 -16 -10 -16 -16 0 -443 70 -446
73 -5 5 400 105 428 106 22 1 29 -6 44 -45z m5144 -116 c0 -38 -5 -47 -37 -73
-34 -27 -49 -31 -148 -41 -60 -7 -111 -11 -113 -9 -4 4 147 106 202 137 28 15
61 28 74 28 19 0 22 -5 22 -42z m268 -23 c46 -15 81 -29 78 -32 -11 -12 -149
-22 -167 -12 -22 11 -28 85 -6 77 6 -3 49 -17 95 -33z m677 9 c-11 -8 -65 -38
-120 -66 -95 -47 -103 -50 -160 -45 -33 3 -94 17 -135 30 -90 30 -100 26 190
62 118 15 217 29 219 31 2 2 9 4 15 4 6 0 2 -8 -9 -16z m-2280 -49 c33 -9 114
-37 180 -63 l119 -47 -54 -7 c-30 -3 -81 -6 -113 -7 -55 -1 -60 1 -96 39 -21
22 -51 43 -68 46 -19 4 -35 15 -42 30 -13 29 -8 30 74 9z m-1548 -80 l128 -63
-115 -1 -115 0 -37 34 c-29 27 -38 43 -38 69 0 30 2 33 25 29 13 -3 82 -34
152 -68z m-337 32 c0 -23 -8 -41 -28 -60 l-27 -26 -145 9 c-80 5 -158 10 -175
11 -23 1 -12 7 45 26 90 30 264 71 303 72 24 1 27 -2 27 -32z m1655 -3 c14
-34 14 -38 -6 -65 l-20 -29 -127 1 -127 0 129 65 c71 35 130 64 132 64 2 0 11
-16 19 -36z m-2510 -49 c170 -15 311 -28 313 -29 1 -2 -46 -14 -105 -27 -82
-18 -140 -23 -238 -24 -142 0 -167 7 -257 68 -45 30 -63 52 -35 42 6 -2 151
-16 322 -30z m3695 10 c0 -9 -132 -92 -174 -109 -64 -27 -146 -21 -265 20 -58
20 -110 39 -114 44 -5 4 47 11 115 15 96 5 337 25 426 34 6 0 12 -1 12 -4z
m-1560 -82 c0 -9 -193 -93 -256 -112 -86 -27 -149 -26 -226 3 -57 21 -228 103
-228 109 0 1 160 2 355 3 195 0 355 -1 355 -3z"/>
<path d="M10985 3764 c-5 -1 -40 -5 -76 -9 l-66 -6 5 -50 c4 -43 2 -52 -17
-65 -53 -38 -79 -160 -47 -222 50 -95 155 -128 243 -77 54 32 83 86 83 155 0
61 -17 96 -64 138 -29 25 -36 39 -37 69 -1 45 -10 71 -24 67z"/>
</g>
</svg>
